<svg xmlns="http://www.w3.org/2000/svg" viewBox="0 0 36 36"><path d="M8.26.14C4.24.14.89 2.64.89 5.5V32.05c0 2.2 1.82 3.98 4.05 3.98h22.25c1.64 0 3.05-.97 3.68-2.35a3.98 3.98 0 0 0 2.39-3.63v-.54a3.97 3.97 0 0 0 2.02-3.45V5.5c0-3.05-2.3-5.36-5.44-5.36H8.98Z"/><path fill="#a0041e" d="M32.8 25a3.46 3.46 0 0 1-3.47 3.47H6.84A3.46 3.46 0 0 1 3.38 25V7.98c0-1.91 5.01-5.46 6.92-5.46h17.84c2.68 0 4.65 2 4.65 4.65z"/><path fill="#ccd6dd" d="M31.06 28.47a3.46 3.46 0 0 1-3.46 3.46H8.57a3.46 3.46 0 0 1-3.46-3.46V7.7c0-3.57-.02-3.46 4.33-3.46H27.6a3.46 3.46 0 0 1 3.46 3.46z"/><path fill="#e1e8ed" d="M29.33 29.33a2.6 2.6 0 0 1-2.6 2.6H5.99a2.6 2.6 0 0 1-2.6-2.6V8.57a2.6 2.6 0 0 1 2.6-2.6h20.76a2.6 2.6 0 0 1 2.6 2.6z"/><path fill="#be1931" d="M29.33 30.2a3.46 3.46 0 0 1-3.46 3.46H7.71a3.46 3.46 0 0 1-3.46-3.46V11.17A3.46 3.46 0 0 1 7.7 7.7h18.16a3.46 3.46 0 0 1 3.46 3.46z"/><path fill="#dd2e44" d="M27.6 30.2a3.46 3.46 0 0 1-3.46 3.46H7.71a3.46 3.46 0 0 1-3.46-3.46V12.9A3.46 3.46 0 0 1 7.7 9.44h16.72c1.91 0 3.17 1.26 3.17 3.17z"/><path fill="#a0041e" d="M7.7 7.7c-1.45 0-1.5-1.66-.86-2.37.72-.82 1.84-1.08 3.84-1.08h1.35V2.52H9.68c-3.43 0-6.3 2.16-6.3 4.65V30.2a3.46 3.46 0 0 0 3.46 3.46h1.73V7.7Z"/></svg>