<svg xmlns="http://www.w3.org/2000/svg" viewBox="0 0 36 36"><circle cx="18" cy="18" r="17.94"/><circle cx="18" cy="18" r="15.56" fill="#ffcc4d"/><path fill="#65471b" d="M7.63 11.95a.86.86 0 0 1 0-1.73c.13 0 3.08-.07 5.36-3.1a.86.86 0 0 1 1.38 1.03 9 9 0 0 1-6.74 3.8zm21.6 2.07a.86.86 0 0 1-1.69.4c-.03-.13-.78-2.98-4.27-4.5a.86.86 0 0 1 .69-1.58 9 9 0 0 1 5.26 5.68z"/><path fill="#664500" d="M22.48 27.96c-.86 0-1.69-.4-2.4-1.16-2.44-2.58-3.1-2.01-4.17-1.08-.68.59-1.52 1.32-2.77 1.32-2.03 0-3.43-2-3.49-2.08a.86.86 0 0 1 1.42-.98c.26.37 1.14 1.33 2.07 1.33.6 0 1.09-.41 1.64-.9 1.57-1.36 3.25-2.29 6.55 1.2.71.76 1.26.68 1.65.52 1.43-.58 2.77-3.2 2.76-4.45 0-.48.39-.87.86-.87.48 0 .87.38.87.86.01 1.82-1.6 5.16-3.85 6.06-.38.15-.76.23-1.14.23z"/><path fill="#65471b" d="M15.25 15.73c-.5 1.83-1.42 2.67-2.73 2.3-1.3-.35-2.02-1.64-1.52-3.47.5-1.83 1.88-2.9 3.19-2.55 1.3.36 1.56 1.9 1.06 3.72zm9.86-.65c.41 1.85-.58 4.18-1.9 4.47-1.32.3-2.84-1.48-3.24-3.33-.41-1.85.36-3.44 1.68-3.73 1.32-.29 3.05.74 3.46 2.59z"/></svg>