<?xml version="1.0" encoding="UTF-8" standalone="no"?>
<!-- Created with Inkscape (http://www.inkscape.org/) -->

<svg
   version="1.1"
   id="svg1"
   width="178.72781"
   height="178.66492"
   viewBox="0 0 178.72781 178.66492"
   sodipodi:docname="puzzle.svg"
   inkscape:version="1.4 (86a8ad7, 2024-10-11)"
   xmlns:inkscape="http://www.inkscape.org/namespaces/inkscape"
   xmlns:sodipodi="http://sodipodi.sourceforge.net/DTD/sodipodi-0.dtd"
   xmlns="http://www.w3.org/2000/svg"
   xmlns:svg="http://www.w3.org/2000/svg">
  <sodipodi:namedview
     id="namedview1"
     pagecolor="#ffffff"
     bordercolor="#000000"
     borderopacity="0.25"
     inkscape:showpageshadow="2"
     inkscape:pageopacity="0.0"
     inkscape:pagecheckerboard="0"
     inkscape:deskcolor="#d1d1d1"
     inkscape:zoom="3.2967857"
     inkscape:cx="42.162279"
     inkscape:cy="92.059365"
     inkscape:window-width="1920"
     inkscape:window-height="1027"
     inkscape:window-x="-8"
     inkscape:window-y="-8"
     inkscape:window-maximized="1"
     inkscape:current-layer="svg1" />
  <defs
     id="defs1" />
  <path
     style="display:inline;fill:#15c40b"
     d="m 63.201735,126.62409 c -2.1472,0.10331 -9.599388,2.24506 -12.082812,11.46779 -2.102006,7.80626 -10.633781,13.70148 -18.050631,13.70148 -5.561722,0 -10.391367,-2.83047 -13.070262,-6.59263 -6.910458,-9.70485 -5.553333,-23.05567 5.461411,-26.97491 2.596859,-0.92401 8.720567,-2.94789 10.298116,-3.53207 5.329173,-1.97343 6.162826,-6.95062 3.493013,-12.21612 C 30.186896,91.20862 20.191057,80.73814 10.250846,70.243539 l 9.036652,-9.633051 c 7.967832,-8.493692 8.983212,-8.722272 13.163811,-8.722272 5.558723,0 10.721851,2.876605 12.660135,9.403515 1.956106,6.586925 5.803244,13.883465 8.256622,15.196473 0,0 -0.58442,-0.448666 -5.231505,4.269363 l -3.752025,3.938516 6.788,6.693897 19.165531,-17.659041 22.309154,13.322795 c 1.708061,1.670495 3.366501,3.379302 4.857411,5.247464 -1.49935,2.091155 -6.366246,4.255495 -6.366246,13.565152 0,6.5647 2.578136,10.54053 7.608916,13.50203 2.280048,1.34221 4.850838,1.87036 5.556578,1.87036 2.7256,0 9.6098,4.9041 10.69594,7.28792 1.54795,3.39737 0.7541,9.07842 -0.96447,12.33287 -0.78428,1.48519 -5.28824,5.26759 -8.98349,9.01702 l -7.726798,7.84008 C 82.400848,146.51046 66.028494,126.4881 63.201735,126.62409 Z"
     id="path36475" />
  <path
     style="display:inline;fill:#b1d9f0"
     d="m 78.693662,153.91491 -5.46584,-5.75 5.75,5.46584 c 5.341932,5.07794 6.208093,6.03416 5.46584,6.03416 -0.156288,0 -2.743788,-2.5875 -5.75,-5.75 z m 51.034158,-39.04237 c -2.89913,-1.44828 -5.1854,-3.51689 -7.05591,-8.78266 -1.24201,-3.49642 -1.89469,-7.951217 -3.0365,-9.554747 -7.76109,-9.124808 -17.66942,-6.092017 -22.564848,-4.123856 l -3.79759,-4.756767 9.943268,-19.96634 9.94326,-19.96634 2.06376,1.9388 2.06376,1.938801 8.71673,-17.467259 c 5.6816,-11.385237 9.25759,-17.467259 10.27006,-17.467259 1.91654,0 7.31521,2.680085 9.80639,4.868229 5.46704,4.802017 6.49627,14.85667 2.16112,21.112298 -2.78754,4.022421 -6.00223,6.945445 -12.39285,8.567746 -12.21611,3.101143 -8.50373,14.002007 -7.73013,15.461471 0.78723,1.485187 8.63887,8.176493 16.1156,16.117679 l 14.12004,14.997167 -7.92203,7.883727 c -6.71254,6.68009 -11.42878,10.72763 -14.73714,10.72362 -0.70517,-8.6e-4 -4.04199,-0.56267 -5.96699,-1.52431 z M 52.624185,38.496693 C 48.179496,27.927181 55.510236,24.089199 70.344543,10.043416 l 16.20987,15.532055 -31.278152,16.605634 z"
     id="path36478" />
  <path
     style="display:inline;fill:#b69064"
     d="m 43.054127,85.643803 9.993289,-10.144058 c 5.4918,4.011068 9.815455,2.051568 16.915386,-0.05464 -6.359469,6.011085 -12.749797,11.987898 -18.775663,18.336918 z"
     id="path36477" />
  <path
     style="display:inline;fill:#717271"
     d="m 97.661012,157.16491 8.029258,-7.97242 c 8.91885,-8.85571 12.07111,-16.19828 7.45377,-21.36207 4.52311,3.41243 7.85677,6.70617 7.85677,6.70617 10.47338,10.0069 8.85895,13.52794 -2.27568,25.36412 -4.1617,4.42391 -8.77332,8.579 -9.05067,8.32367 z m -60.110261,4.40921 C 30.460033,157.67009 26.204869,150.87024 24.960804,149.484 c 0,0 2.238645,0.57291 3.267018,0.84868 10.355632,2.77698 20.079844,-3.55296 22.104682,-14.38897 0.42286,-2.26296 1.889786,-5.20781 3.950715,-7.0288 11.442905,-10.11071 20.936433,6.54555 28.128776,13.46584 0,0 -12.282516,-10.19867 -19.990627,8.01136 -8.039497,18.99292 -23.629157,11.86554 -24.870617,11.18201 z m 91.132489,-47.26136 c 4.80668,2.08802 11.08354,0.53979 19.82583,-7.98674 l 8.68022,-8.755117 11.54719,11.467397 c 0,0 -12.0646,17.77984 -21.68419,18.13133 -9.41124,0.34388 -17.21785,-11.47992 -18.36905,-12.85687 z m -30.965588,6.10215 c -7.741647,-5.26892 -9.311864,-15.07659 -6.256585,-21.522187 2.785665,-5.8768 6.967115,-8.396516 13.015923,-8.97773 12.3244,-1.184219 18.63138,9.6913 18.06566,13.356257 -2.686,-2.22385 -9.28873,-3.01325 -15.48017,2.58036 -4.42581,3.99846 -6.24793,8.48339 -5.44658,13.42155 0.30273,1.86546 3.64453,3.53471 2.29237,3.44817 -1.9238,-0.12312 -4.372348,-1.06892 -6.190618,-2.30642 z M 126.83548,66.980654 c -1.62467,-3.203775 -1.35104,-8.515088 0.58438,-11.343235 2.22361,-3.249285 3.12802,-3.53695 7.80796,-4.988459 21.63061,-6.708849 15.99119,-26.969915 8.56284,-31.169402 2.40049,-0.141628 8.51547,6.876862 12.05209,10.451862 7.15362,7.231242 8.32009,11.309104 7.19902,18.334673 -0.91753,5.749976 -5.90047,10.34786 -11.69743,12.591822 -8.79192,3.403286 -10.72852,5.487838 -12.33071,7.601128 -1.69421,2.234662 0.95901,9.35426 8.13321,17.432967 -7.37236,-5.067462 -18.00617,-15.516442 -20.31136,-18.911356 z m -74.32179,9.570883 c -4.701691,-2.90421 -5.759809,-6.195004 -7.81807,-12.992979 l -1.912521,-6.316629 c 5.850734,-2.269515 10.545482,-3.322821 17.309252,3.856125 1.172174,1.244126 11.061879,13.830663 11.061879,13.830663 -5.807094,3.453769 -12.560503,4.850189 -18.64054,1.62282 z M 76.542375,67.87975 c -18.09936,-5.57861 -25.95248,-7.929793 -19.556547,-25.244256 7.686732,1.344886 15.099719,4.40913 19.720107,11.024689 3.740161,5.983078 -0.16356,14.219567 -0.16356,14.219567 z"
     id="path36476" />
  <path
     style="display:inline;fill:#13a00e"
     d="m 70.762698,75.002051 c 5.511715,-3.788988 7.253114,-11.240826 7.21237,-13.93595 -0.124684,-8.24767 -5.331937,-13.911207 -15.446349,-16.799831 -3.134507,-0.895199 -5.156834,-1.380391 -7.289534,-2.507352 0,0 20.403283,-11.144382 30.507295,-16.137367 l 7.558552,7.08149 c 8.509228,7.97216 12.491598,7.989459 14.676118,7.561561 3.32918,-0.65211 6.96468,-2.95327 8.48294,-8.872042 3.0044,-11.712294 8.83673,-17.416198 20.23545,-15.517563 0,0 -12.35943,21.332674 -19.31952,35.985455 l -4.04674,-4.106075 c 0,0 -5.60937,10.873036 -11.99804,23.660536 -6.388668,12.7875 -11.72638,23.24411 -11.861587,23.23691 C 83.063689,88.331678 77.688216,82.14728 70.762698,75.002051 Z"
     id="path36474" />
  <path
     style="display:inline;fill:#010201"
     d="m 88.65067,163.05716 -15.718284,-15.60775 -1.610903,5.54131 c -2.133224,7.33803 -6.859314,13.2734 -13.593661,17.07191 -4.759082,2.68436 -6.442987,3.09241 -12.5,3.02901 C 34.849119,172.983 29.737637,170.35277 19.468658,159.83669 9.7618231,149.89627 6.7186751,144.65559 5.9905511,136.62571 4.7859971,123.34167 14.622681,109.86328 27.477822,107.1835 c 1.7875,-0.37263 3.25,-0.98507 3.25,-1.36098 0,-0.37591 -6.537186,-7.202657 -14.527079,-15.170542 C -0.11882205,74.377365 -1.7619805,71.606697 1.2017988,65.360996 3.5826161,60.343797 18.886026,45.924819 24.435541,43.470004 c 4.654141,-2.058748 13.174891,-2.188851 17.71589,-0.270503 1.627462,0.687522 1.798501,0.516483 1.110979,-1.110979 C 41.339809,37.537454 41.474155,29.026797 43.542404,24.351175 46.21031,18.319933 61.750508,2.1425598 66.327268,0.63209252 72.221742,-1.3132591 75.126749,0.53595612 90.7268,16.163889 c 7.961332,7.975563 14.78272,14.501024 15.15863,14.501024 0.37591,0 0.99915,-1.4625 1.38497,-3.25 1.09057,-5.052567 3.93294,-9.913035 8.12269,-13.889815 5.44267,-5.1660262 9.84692,-7.0923232 17.46141,-7.6371362 5.66747,-0.405506 7.48509,-0.08959 12.38134,2.151994 7.64833,3.5015212 21.55257,17.0055332 25.21307,24.4873222 7.28399,14.887939 0.0919,32.452196 -15.63654,38.18708 -3.3465,1.220195 -6.08455,2.477582 -6.08455,2.794193 0,0.316611 6.75,7.376545 15,15.688742 l 15,15.113077 v 4.81197 c 0,4.72089 -0.17509,4.99099 -9.25,14.26916 -5.0875,5.20145 -11.05,10.39843 -13.25,11.54883 -4.2425,2.21846 -13.85253,2.88644 -18.36147,1.2763 -2.27379,-0.81197 -2.32949,-0.71719 -1.5,2.5525 1.4395,5.67428 0.85068,13.09063 -1.38113,17.39578 -1.14049,2.2 -6.32936,8.1625 -11.53081,13.25 -9.27937,9.07608 -9.54771,9.25 -14.27132,9.25 h -4.81414 z m 29.43611,-3.43573 c 11.5528,-12.2807 11.47065,-15.74584 -0.65676,-27.70209 -5.33093,-5.25569 -8.30382,-7.38967 -11.44214,-8.21333 -3.21432,-0.8436 -4.38995,-1.71043 -4.86006,-3.58351 -2.354528,-9.38121 8.00207,-20.475057 18.01405,-19.29639 2.44131,0.2874 3.07497,1.0095 4.17696,4.75995 0.95386,3.24634 3.2209,6.3559 8.53151,11.7022 16.27186,17.95133 23.55622,4.21958 35.83242,-8.12335 L 152.6467,93.441283 C 136.24308,76.287559 134.95201,73.999625 138.16729,67.781972 c 1.64092,-3.173204 3.74567,-4.424836 12.78209,-7.601128 5.50775,-1.93597 9.29143,-5.993586 10.79467,-11.576216 1.89021,-7.019678 0.47762,-10.414048 -8.25865,-19.845037 -9.05719,-9.777445 -12.46715,-11.993353 -18.54742,-12.052762 -8.78848,-0.08587 -14.62406,5.039595 -17.68397,15.53207 -0.81385,2.790693 -2.35728,5.868162 -3.42984,6.838822 -2.85028,2.579468 -8.2838,3.550498 -11.71476,2.093558 -1.58487,-0.67301 -9.427877,-7.822255 -17.428897,-15.887211 L 70.133204,10.620512 61.430513,19.513944 c -8.463961,8.649469 -8.702691,9.023557 -8.702691,13.637037 0,4.559187 0.297049,5.048852 7.640676,12.595127 5.78484,5.944474 8.794701,8.234827 12.391923,9.429633 5.390297,1.790369 6.457412,4.12398 4.738997,10.363434 -2.234611,8.113728 -8.234273,12.468209 -16.437181,11.929905 -4.555997,-0.298981 -4.65742,-0.380897 -5.948193,-4.804167 -0.995075,-3.40996 -3.144849,-6.316733 -8.874889,-12 -7.552981,-7.491328 -7.568027,-7.5 -13.01293,-7.5 h -5.451206 l -8.023598,7.97654 c -4.41298,4.387097 -8.023599,8.442917 -8.023599,9.012935 0,0.570017 6.537652,7.555574 14.528116,15.52346 15.029282,14.986812 16.887855,17.819242 15.338045,23.374852 -1.210938,4.34086 -3.67722,6.50092 -9.292175,8.1384 -7.310182,2.13186 -11.209217,4.83848 -13.533649,9.39474 -4.384795,8.59491 -2.31643,14.81091 8.374106,25.16648 9.114512,8.82892 13.440529,11.16181 19.085557,10.29225 8.126606,-1.25182 12.466152,-5.15922 14.924869,-13.43862 2.032994,-6.84584 3.229566,-8.71098 6.759563,-10.53641 6.191473,-3.20174 8.527682,-1.86724 25.456508,14.5414 8.542158,8.27968 15.895718,15.05397 16.341248,15.05397 0.44552,0 4.21507,-3.61957 8.37677,-8.04348 z"
     id="path36473" />
</svg>
