<svg xmlns="http://www.w3.org/2000/svg" viewBox="0 0 178.71 178.64"><path fill="#15c40b" d="M29.83 160.29c-28.81-22.7-17.44-47.43 5.76-45.82.36-13.65-16.17-30.46-25.51-44.45L32.5 46.09l77.83 42.75 9.75 47.5-22.02 23.88-33.33-24.2z"/><path fill="#b1d9f0" d="M119.46 96.31c-7.76-9.12-17.66-6.1-22.56-4.12l-3.8-4.76L113 47.5l4.13 3.87 18.9-35.54c6.2 1.81 7.4 3.29 9.89 5.48 5.47 4.8 6.5 14.86 2.16 21.11-2.79 4.02-6 6.95-12.4 8.57a10.46 10.46 0 0 0-7.72 15.46l30.23 31.11s-13.14 17.52-22.66 18.61c-12.04-.63-12.05-11.82-16.06-19.86zM70.17 9.81l16.21 15.54-31.27 16.6C44.48 28.95 61.2 18.17 70.17 9.83Z"/><path fill="#b69064" d="m42.88 85.42 10-10.14c5.49 4 9.81 2.05 16.91-.06-6.36 6.01-12.75 11.99-18.77 18.34Z"/><path fill="#717271" d="M145.46 20.8c1.47 1.74 4.27 5.03 4.15 7.28 3.03 9.32-3.65 18.99-12.6 21.68-8.16.69-14.23 9.23-10.34 17 4.6 5.64 9.95 10.69 15.63 15.28a95.97 95.97 0 0 1-4.42-5.75c-4.84-8.61 5.66-14.87 12.9-16.33 10.12-2.98 15.5-17.3 7.78-25.33-4.18-4.56-8.12-10-13.1-13.84zM56.83 42.57c2.38 2.49 5.95 5.26 8.08 7.52 4.75 3.37 12.17 6.06 13.21 11.27 1.15-8.39-6.97-14.73-14.26-17.14l-7.03-1.65zM42.7 57.28c2.36 6.72 2.95 15.08 9.64 19.05 3.95 2.16 8.74 2.28 12.97.93-1.17.06-7.02 1.21-9.93-3.36-2.04-6.86-7.33-11.96-12.68-16.62ZM97.84 91.4c-13.86 9.81-5.54 27.48 3.62 29.73-2.84-7.25 4.98-23.56 20.1-19.39-2.1-11.63-17.13-15.01-23.72-10.34Zm58.89 6.24-6.94 7c-5.36 5.33-12.7 12.28-20.85 9.57a81.26 81.26 0 0 0 7.1 7.1c5.84 6.42 15.82 5.08 21-1.4 2.51-4.64 14.53-9.56 7.33-14.26a329.06 329.06 0 0 0-7.64-8zm-95.4 27.88c-7.42.22-11.16 7.63-12.27 14.04-3.17 9.04-15.09 13.5-23.88 10.09 4.76 5.21 10.03 10.16 16.8 12.17 9.21 1.4 17.96-5.56 19.37-14.67.3-2.94 7.45-17.68 20.15-5.56-6.04-5.9-10.87-15.3-20.16-16.07zm52.42 3c.33.9 1.85 3.57 1.25 5.78-2.3 9.61-10.84 15.54-17.29 22.41 3.83 3.7 7.7 7.36 11.83 10.73 3.13-2.29 5.66-5.3 8.38-8.04 6.5-5.55 12.56-15.77 4.14-22.66a50.01 50.01 0 0 0-8.3-8.22z"/><path fill="#13a00e" d="M134.26 16.34c-9.3.09-16.53 8.64-17.53 17.46-2.15 8.19-14.34 10.47-19.41 3.74-3.92-4.08-8.27-7.81-12.21-11.9L53.18 41.68c7.87 2.04 17.21 3.37 22.14 10.66a20.73 20.73 0 0 1 2.76 11.9c-1.34 3.71-3.04 7.64-6.42 9.97l18.29 20.74 23.21-47.43 4.05 4.1c5.78-11.99 12.26-23.63 18.87-35.19-.6-.07-1.21-.1-1.82-.1z"/><path fill="#010201" d="m88.48 162.83-15.72-15.6c-2.1 9.75-7.34 19.3-16.86 23.51-10.24 4.62-23.39 2-31.3-6-9.27-8.77-20.61-19.24-18.73-33.3C7.15 119 17.29 108.3 29.6 106.27c-2.15-6.7-12.22-13.49-17.78-20.09C7.09 80.34-3.3 73.82 1.03 65.14a80.37 80.37 0 0 1 23.24-21.9c5.32-4 16.52.86 18.82-1.38-3.15-8.79-1.05-19.12 5.83-25.6 5.52-5.9 10.76-12.9 18.31-16.17 9.57-1.16 15.27 9.2 21.9 14.42 5.63 4.7 11.55 13.66 17.27 14.98 2.38-13.2 14.44-24.57 28.24-23.94 12.13-.36 21.06 9.61 28.9 17.55 9.13 8.6 12.75 23.05 6.35 34.28-4 8.39-12.68 12.35-20.85 15.5 2.98 5.75 10.33 11.28 15.23 16.81l14.29 14.4c.7 6.15-.96 12.18-6.25 16-7.33 6.86-14.21 16.8-25.33 16.7-5.53 1-14.51-4.4-10.19 5.1a23.68 23.68 0 0 1-7.87 21.45c-6.32 5.36-11.24 15.13-20.41 15.1-3.46.82-5.86-.93-7.9-3.56l-12.13-12.05zm29.44-3.43c6.5-5.55 12.56-15.77 4.14-22.66-5.5-6.94-12.76-12.12-20.6-15.61-4.15-10.88 9.5-24.29 20.1-19.45 2.48 7.98 8.36 14.14 14.47 19.62 5.85 6.43 15.83 5.1 21-1.4 2.52-4.63 14.54-9.55 7.34-14.25-8.9-9.72-18.9-18.55-26.5-29.36-4.83-8.61 5.68-14.87 12.9-16.33 10.13-2.98 15.51-17.29 7.79-25.33-6.06-6.62-11.6-15.19-20.6-17.85-10.02-2.44-19.07 5.72-20.88 15.23-1.13 9.95-14.78 12.98-20.3 4.8-9.3-8.42-17.93-17.56-26.82-26.41-5.62 6.15-12.29 11.5-16.88 18.46-3.33 9.42 6.3 15.4 11.83 21.24 6.47 4.6 17.96 7.9 11.4 18.08-2.48 7.84-16.16 13.2-20.93 5.72-2.54-8.54-10.14-14.4-16.6-20.02-3.74-.7-9.53-2.4-12.6.49-4.95 5.11-10.46 9.77-14.62 15.56 9 11.75 21.84 20.36 29.65 33.01 3.53 9.84-7.55 14.16-14.99 16.23-9.53 4-13.08 17.6-5.68 25.27 6.05 6.8 12.4 14.7 21.44 17.38 9.21 1.4 17.96-5.56 19.37-14.67.82-8.37 11.64-14.57 17.99-7.42 10.61 8.62 19.6 19.07 30.2 27.71 3.13-2.29 5.66-5.3 8.38-8.04z"/></svg>