<?xml version="1.0" encoding="UTF-8" standalone="no"?>
<!-- Created with Inkscape (http://www.inkscape.org/) -->

<svg
   version="1.1"
   id="svg1"
   width="178.70956"
   height="178.64487"
   viewBox="0 0 178.70956 178.64487"
   xmlns="http://www.w3.org/2000/svg"
   xmlns:svg="http://www.w3.org/2000/svg">
  <defs
     id="defs1" />
  <path
     style="display:inline;fill:#15c40b"
     d="M 29.830977,160.28968 C 1.0202813,137.58433 12.387756,112.86152 35.587068,114.46922 35.951685,100.82428 19.421824,84.008161 10.080357,70.019009 l 22.414947,-23.931899 77.829866,42.75002 9.75972,47.5082 -22.02034,23.8767 -33.331012,-24.2042 z"
     id="path36475" />
  <path
     style="display:inline;fill:#b1d9f0"
     d="M 119.46492,96.310603 C 111.70383,87.185795 101.7955,90.218586 96.900073,92.186747 l -3.79759,-4.756767 19.886527,-39.93268 4.12752,3.877601 18.91096,-35.54117 c 6.19155,1.80636 7.39104,3.286737 9.88222,5.474881 5.46704,4.802017 6.49627,14.85667 2.16112,21.112298 -2.78754,4.022421 -6.00223,6.945445 -12.39285,8.567746 -12.21611,3.101143 -8.88128,14.276845 -7.73013,15.461471 l 30.23564,31.114846 c 0,0 -13.14323,17.514337 -22.65917,18.607347 -12.04196,-0.63314 -12.05142,-11.82205 -16.0594,-19.861717 z M 70.174054,9.8188856 86.383924,25.350941 55.105772,41.956575 C 44.477971,28.939858 61.199044,18.1635 70.174054,9.8188856 Z"
     id="path36478" />
  <path
     style="display:inline;fill:#b69064"
     d="m 42.883638,85.419273 9.993289,-10.144058 c 5.4918,4.011068 9.815455,2.051568 16.915386,-0.05464 C 63.432844,81.23166 57.042516,87.208473 51.01665,93.557493 Z"
     id="path36477" />
  <path
     id="path36476"
     style="display:inline;fill:#717271"
     d="m 145.46037,20.791095 c 1.46516,1.745023 4.27296,5.038687 4.15039,7.285156 3.02491,9.322039 -3.65307,18.991111 -12.60547,21.679688 -8.15687,0.693193 -14.22427,9.239005 -10.33984,17 4.60349,5.644696 9.95615,10.694459 15.63476,15.285156 -1.53382,-1.868841 -3.02771,-3.770985 -4.41992,-5.755859 -4.84333,-8.606028 5.66457,-14.867478 12.89844,-16.328125 10.12078,-2.980189 15.5033,-17.287695 7.77734,-25.330079 -4.17144,-4.554196 -8.1196,-9.994056 -13.0957,-13.835937 z M 56.829349,42.577488 c 2.377843,2.488584 5.948205,5.265002 8.082193,7.524154 4.744314,3.373148 12.163996,6.062866 13.210938,11.263672 1.144938,-8.380457 -6.972062,-14.725976 -14.257813,-17.134766 -3.687465,-0.860994 -7.035318,-1.65306 -7.035318,-1.65306 z m -14.13265,14.699935 c 2.365372,6.718111 2.950816,15.084503 9.646484,19.048828 3.949606,2.159035 8.736456,2.285471 12.96875,0.935547 -1.176198,0.05809 -7.022959,1.207816 -9.929688,-3.357422 C 53.344202,67.04387 48.053379,61.939894 42.696699,57.277423 Z m 55.139392,34.119848 c -13.855302,9.813149 -5.53588,27.484969 3.626229,29.731719 -2.843377,-7.24988 4.98075,-23.559756 20.10443,-19.38582 C 119.46934,90.108982 104.43013,86.726978 97.836091,91.397271 Z m 58.889899,6.243433 c -2.31033,2.330266 -4.6213,4.661916 -6.93164,6.992186 -5.36852,5.3339 -12.69844,12.28636 -20.85742,9.58203 2.19053,2.52124 4.61658,4.86608 7.09375,7.08985 5.85218,6.42752 15.83178,5.08834 21.00781,-1.39453 2.51505,-4.64289 14.53008,-9.56384 7.33008,-14.25782 -2.486,-2.71927 -5.05848,-5.36954 -7.64258,-8.011716 z M 61.339277,125.5157 c -7.433319,0.22222 -11.165819,7.63863 -12.283204,14.04688 -3.166712,9.03282 -15.084196,13.49038 -23.878906,10.08594 4.763769,5.21445 10.03178,10.1608 16.798828,12.17187 9.214985,1.3939 17.962019,-5.56221 19.378907,-14.66601 0.286234,-2.94375 7.445877,-17.68326 20.148204,-5.56008 -6.045519,-5.89695 -10.873597,-15.31307 -20.163829,-16.0786 z m 52.412113,3.00391 c 0.32588,0.90987 1.84403,3.56713 1.24414,5.7793 -2.28837,9.6114 -10.83323,15.54239 -17.28516,22.41406 3.83221,3.70053 7.70098,7.36043 11.83008,10.72656 3.12617,-2.28713 5.66208,-5.29443 8.375,-8.04297 6.50803,-5.54444 12.56428,-15.76478 4.14844,-22.65234 -2.44985,-3.09664 -5.26519,-5.82339 -8.3125,-8.22461 z" />
  <path
     id="path36474"
     style="display:inline;fill:#13a00e"
     d="m 134.26115,16.341876 c -9.29543,0.08737 -16.52812,8.639591 -17.53116,17.453848 -2.14762,8.191401 -14.34147,10.47567 -19.412133,3.748588 -3.921638,-4.085704 -8.265736,-7.81743 -12.211002,-11.91142 L 53.175751,41.688763 c 7.879086,2.042202 17.217225,3.366692 22.139546,10.660349 2.129569,3.511235 3.027022,7.858959 2.760595,11.896079 -1.335338,3.719471 -3.038986,7.639981 -6.419255,9.974752 l 18.290934,20.74408 23.215919,-47.434647 4.04688,4.107422 c 5.77898,-11.996141 12.26088,-23.638169 18.86523,-35.195312 -0.60207,-0.06943 -1.20821,-0.103746 -1.81445,-0.09961 z" />
  <path
     style="display:inline;fill:#010201"
     d="M 88.480181,162.83263 C 83.240753,157.63005 78.001325,152.42746 72.761897,147.22488 70.666358,156.97832 65.421606,166.53054 55.902279,170.74156 45.65833,175.35844 32.514238,172.74764 24.599233,164.7311 15.326462,155.97076 3.9855238,145.50112 5.8702425,131.43203 7.1488492,119.0011 17.288161,108.3147 29.602646,106.27971 27.451339,99.572402 17.383,92.791752 11.819055,86.192284 7.0900454,80.339144 -3.2944183,73.818869 1.0313094,65.136466 7.1350479,56.419981 15.225278,48.862676 24.265052,43.245474 29.592273,39.243461 40.794608,44.102381 43.091921,41.863992 39.939085,33.073126 42.042096,22.737411 48.916847,16.25709 54.441913,10.368502 59.677467,3.3693395 67.230789,0.08971377 76.80447,-1.0696658 82.500047,9.2966402 89.13052,14.514303 c 5.630254,4.686679 11.5456,13.650896 17.27319,14.971392 2.37372,-13.204842 14.43291,-24.5611108 28.23867,-23.9381597 12.12347,-0.3591974 21.0581,9.6147267 28.90002,17.5556927 9.12691,8.602289 12.74504,23.043939 6.34393,34.281627 -3.99994,8.384397 -12.68039,12.349079 -20.84889,15.500593 2.98313,5.740596 10.33541,11.27936 15.23199,16.80478 4.76263,4.798537 9.52527,9.597075 14.2879,14.395612 0.70126,6.15618 -0.95978,12.18843 -6.24705,15.99778 -7.33196,6.86139 -14.21469,16.80585 -25.33377,16.70606 -5.52764,0.9988 -14.50829,-4.39739 -10.18232,5.09844 1.27443,8.0483 -1.78539,16.09095 -7.87677,21.45424 -6.3185,5.35628 -11.23412,15.12834 -20.41025,15.09802 -3.45984,0.82212 -5.85895,-0.92941 -7.89523,-3.5613 -4.043916,-4.01548 -8.087837,-8.03097 -12.131759,-12.04645 z m 29.436109,-3.43573 c 6.50803,-5.54444 12.56315,-15.76593 4.14731,-22.65349 -5.49532,-6.94615 -12.75937,-12.12656 -20.60057,-15.61394 -4.148509,-10.87485 9.50489,-24.287734 20.09907,-19.44656 2.47663,7.9808 8.35884,14.1366 14.46875,19.62149 5.85218,6.42752 15.83229,5.08795 21.00832,-1.39492 2.51505,-4.64289 14.52925,-9.56273 7.32925,-14.25671 -8.88978,-9.723953 -18.90338,-18.551859 -26.489,-29.366699 -4.84333,-8.606028 5.6656,-14.86911 12.89947,-16.329757 10.12078,-2.980189 15.50382,-17.286526 7.77786,-25.32891 -6.0597,-6.61571 -11.59303,-15.186015 -20.59591,-17.848615 -10.01784,-2.441365 -19.06887,5.725357 -20.87732,15.23558 -1.12911,9.941396 -14.78325,12.97066 -20.307455,4.795918 -9.305243,-8.424918 -17.925593,-17.55925 -26.81335,-26.414305 -5.61788,6.153729 -12.28927,11.496334 -16.883505,18.468839 -3.332332,9.416544 6.309226,15.390844 11.831715,21.23724 6.468575,4.599076 17.960998,7.90657 11.406589,18.076803 -2.487747,7.83849 -16.169133,13.210248 -20.934647,5.725647 C 52.843174,65.355341 45.241145,59.50595 38.771672,53.881135 35.039536,53.18907 29.250126,51.483941 26.170761,54.365743 21.230533,59.480035 15.71763,64.141009 11.557333,69.929858 c 9.005856,11.754271 21.840717,20.357399 29.656976,33.012532 3.528676,9.84149 -7.556866,14.15724 -14.992973,16.23009 -9.53557,4.00474 -13.082245,17.59477 -5.684696,25.26295 6.05225,6.79758 12.412554,14.70239 21.438807,17.38486 9.214985,1.3939 17.962025,-5.5615 19.378913,-14.6653 0.814742,-8.37915 11.63669,-14.57063 17.982407,-7.42461 10.615892,8.62153 19.605377,19.07078 30.202753,27.71 3.12617,-2.28713 5.66385,-5.29494 8.37677,-8.04348 z"
     id="path36473" />
</svg>
